<svg xmlns="http://www.w3.org/2000/svg" version="1.1" xmlns:xlink="http://www.w3.org/1999/xlink" xmlns:svgjs="http://svgjs.dev/svgjs" width="1000" height="2638" viewBox="0 0 1000 2638"><g transform="matrix(1,0,0,1,0.8394812064971688,2.3148420179550158)"><svg viewBox="0 0 94 248" data-background-color="#ffffff" preserveAspectRatio="xMidYMid meet" height="2638" width="1000" xmlns="http://www.w3.org/2000/svg" xmlns:xlink="http://www.w3.org/1999/xlink"><g id="tight-bounds" transform="matrix(1,0,0,1,-0.0789112334107358,1.0176197196560963)"><svg viewBox="0 0 94.15782208873344 247.2" height="247.2" width="94.15782208873344"><g><svg viewBox="0 0 166.31728045325778 436.6459505541688" height="247.2" width="94.15782208873344"><g transform="matrix(1,0,0,1,0,189.44595055416877)"><svg viewBox="0 0 166.31728045325778 247.20000000000002" height="247.20000000000002" width="166.31728045325778"><g id="textblocktransform"><svg viewBox="0 0 166.31728045325778 247.20000000000002" height="247.20000000000002" width="166.31728045325778" id="textblock"><g><svg viewBox="0 0 166.31728045325778 247.20000000000002" height="247.20000000000002" width="166.31728045325778"><g transform="matrix(1,0,0,1,0,0)"><svg width="166.31728045325778" viewBox="4.349999904632568 -34.900001525878906 23.75 35.30000305175781" height="247.20000000000002" data-palette-color="#1c4b82"><path d="M15.55-34.9L15.55-34.9Q19.8-34.9 22.3-34.13 24.8-33.35 25.93-31.4 27.05-29.45 27.05-25.9L27.05-25.9Q27.05-22.2 25.68-20.25 24.3-18.3 21.2-18L21.2-18 21.2-17.8Q25.05-17.45 26.58-15.1 28.1-12.75 28.1-8.6L28.1-8.6Q28.1-5.05 27-3.1 25.9-1.15 23.48-0.38 21.05 0.4 17.1 0.4L17.1 0.4Q14.15 0.4 12.03 0.38 9.9 0.35 8.1 0.25 6.3 0.15 4.35 0L4.35 0 5.05-3.5Q6.15-3.45 9.22-3.4 12.3-3.35 16.4-3.35L16.4-3.35Q19.15-3.35 20.73-3.83 22.3-4.3 22.98-5.6 23.65-6.9 23.65-9.35L23.65-9.35Q23.65-12.05 22.95-13.5 22.25-14.95 20.6-15.55 18.95-16.15 16.1-16.2L16.1-16.2 5-16.2 5-19.55 16.05-19.55Q18.55-19.6 20.03-20.08 21.5-20.55 22.15-21.83 22.8-23.1 22.8-25.4L22.8-25.4Q22.8-27.75 22.1-29 21.4-30.25 19.78-30.7 18.15-31.15 15.35-31.15L15.35-31.15Q12.9-31.15 10.95-31.15 9-31.15 7.53-31.13 6.05-31.1 5.05-31L5.05-31 4.35-34.5Q6.1-34.7 7.68-34.77 9.25-34.85 11.13-34.88 13-34.9 15.55-34.9ZM4.35-34.5L8.65-34.5 8.65 0 4.35 0 4.35-34.5Z" opacity="1" transform="matrix(1,0,0,1,0,0)" fill="#ffffff" class="undefined-text-0" data-fill-palette-color="primary" id="text-0"></path></svg></g></svg></g></svg></g></svg></g><g transform="matrix(1,0,0,1,31.766600566572237,0)"><svg viewBox="0 0 102.7840793201133 131.08796335416878" height="131.08796335416878" width="102.7840793201133"><g><svg xmlns="http://www.w3.org/2000/svg" xmlns:xlink="http://www.w3.org/1999/xlink" version="1.1" x="8" y="0" viewBox="24.761856079101562 5 59.5826416015625 90" enable-background="new 0 0 100 100" xml:space="preserve" height="131.08796335416878" width="86.7840793201133" class="icon-icon-0" data-fill-palette-color="accent" id="icon-0"><g fill="#1c4b82" data-fill-palette-color="accent"><path d="M73.76 35.603C86.875 48 91.5 66.25 65.633 82.379c3.64-4.928 5.654-9.794 6.096-14.669 0.951-10.516-5.606-19.072-12.835-26.752C48.298 29.7 47.51 18.84 56.413 6.782 54.578 22.641 64.6 26.944 73.76 35.603zM45.288 93.716c6.184-13.053 7.276-20.302-8.197-34.939-4.204-3.977-7.451-8.029-9.71-12.086-2.881 6.435-5.164 20.081 3.244 27.935C36.312 79.938 44.125 83.125 45.288 93.716zM56.709 43.014C48.183 33.954 41.999 21.253 54 5 21.497 17.692 19.625 38.125 39.151 56.597 55.603 72.158 54.75 80.75 48 95 79.875 71.5 68.709 55.764 56.709 43.014z" fill="#ffffff" data-fill-palette-color="accent"></path></g><g display="none" fill="#1c4b82" data-fill-palette-color="accent"><path display="inline" d="M54 5C16.75 17.5 14.875 56.5 26.75 70.762c10.558 12.68 15.407 7.949 19.675 20.824" fill="#ffffff" data-fill-palette-color="accent"></path><line display="inline" x1="56.988" y1="5.261" x2="45.528" y2="136.262" fill="#ffffff" data-fill-palette-color="accent"></line><line display="inline" x1="54.131" y1="3.502" x2="42.67" y2="134.502" fill="#ffffff" data-fill-palette-color="accent"></line><path display="inline" d="M42.875 76" fill="#ffffff" data-fill-palette-color="accent"></path></g></svg></g></svg></g><g></g></svg></g><defs></defs></svg><rect width="94.15782208873344" height="247.2" fill="none" stroke="none" visibility="hidden"></rect></g></svg></g></svg>